<svg width="529.3850219726562px" height="83.35999908447266px" xmlns="http://www.w3.org/2000/svg" viewBox="-14.692510986328102 33.32000045776367 529.3850219726562 83.35999908447266" style="background: none;" preserveAspectRatio="xMidYMid"><filter id="editing-goldstamp"><feFlood flood-color="#000000" result="flood"></feFlood><feMorphology operator="dilate" radius="3" in="SourceGraphic" result="outline"></feMorphology><feComposite operator="in" in="flood" in2="outline" result="outline2"></feComposite><feGaussianBlur stdDeviation="4" in="SourceAlpha" result="blur"></feGaussianBlur><feSpecularLighting surfaceScale="2" specularConstant="0.7" specularExponent="10" lighting-color="#white" in="blur" result="specular"><fePointLight x="200" y="-1000" z="300"></fePointLight></feSpecularLighting><feComposite operator="in" in="specular" in2="SourceGraphic" result="specular2"></feComposite><feComposite in="SourceGraphic" in2="specular2" operator="arithmetic" k1="3" k2="2" k3="1" k4="0" result="specular3"></feComposite><feMerge><feMergeNode in="outline2"></feMergeNode><feMergeNode in="specular3"></feMergeNode></feMerge></filter><g filter="url(#editing-goldstamp)"><g transform="translate(62.280025005340576, 92.78500175476074)"><path d="M15.88 0.23L15.88 0.23Q11.93 0.23 8.76-1.52L8.76-1.52L8.76-1.52Q5.59-3.27 3.78-6.37L3.78-6.37L3.78-6.37Q1.98-9.46 1.98-13.30L1.98-13.30L1.98-13.30Q1.98-17.14 3.78-20.23L3.78-20.23L3.78-20.23Q5.59-23.33 8.78-25.08L8.78-25.08L8.78-25.08Q11.97-26.83 15.92-26.83L15.92-26.83L15.92-26.83Q18.89-26.83 21.39-25.84L21.39-25.84L21.39-25.84Q23.90-24.85 25.65-22.95L25.65-22.95L23.86-21.17L23.86-21.17Q20.75-24.32 16.00-24.32L16.00-24.32L16.00-24.32Q12.84-24.32 10.26-22.88L10.26-22.88L10.26-22.88Q7.68-21.43 6.21-18.92L6.21-18.92L6.21-18.92Q4.75-16.42 4.75-13.30L4.75-13.30L4.75-13.30Q4.75-10.18 6.21-7.68L6.21-7.68L6.21-7.68Q7.68-5.17 10.26-3.72L10.26-3.72L10.26-3.72Q12.84-2.28 16.00-2.28L16.00-2.28L16.00-2.28Q20.79-2.28 23.86-5.47L23.86-5.47L25.65-3.69L25.65-3.69Q23.90-1.79 21.38-0.78L21.38-0.78L21.38-0.78Q18.85 0.23 15.88 0.23L15.88 0.23ZM41.27-20.14L41.27-20.14Q45.03-20.14 47.25-17.95L47.25-17.95L47.25-17.95Q49.48-15.77 49.48-11.59L49.48-11.59L49.48 0L46.78 0L46.78-11.32L46.78-11.32Q46.78-14.44 45.22-16.07L45.22-16.07L45.22-16.07Q43.66-17.71 40.77-17.71L40.77-17.71L40.77-17.71Q37.54-17.71 35.66-15.79L35.66-15.79L35.66-15.79Q33.78-13.87 33.78-10.49L33.78-10.49L33.78 0L31.08 0L31.08-28.20L33.78-28.20L33.78-16.49L33.78-16.49Q34.88-18.24 36.82-19.19L36.82-19.19L36.82-19.19Q38.76-20.14 41.27-20.14L41.27-20.14ZM63.80-20.14L63.80-20.14Q67.72-20.14 69.81-18.18L69.81-18.18L69.81-18.18Q71.90-16.23 71.90-12.39L71.90-12.39L71.90 0L69.31 0L69.31-3.12L69.31-3.12Q68.40-1.56 66.63-0.68L66.63-0.68L66.63-0.68Q64.87 0.19 62.43 0.19L62.43 0.19L62.43 0.19Q59.09 0.19 57.11-1.41L57.11-1.41L57.11-1.41Q55.14-3.00 55.14-5.62L55.14-5.62L55.14-5.62Q55.14-8.17 56.98-9.73L56.98-9.73L56.98-9.73Q58.82-11.29 62.85-11.29L62.85-11.29L69.20-11.29L69.20-12.50L69.20-12.50Q69.20-15.09 67.75-16.43L67.75-16.43L67.75-16.43Q66.31-17.78 63.54-17.78L63.54-17.78L63.54-17.78Q61.64-17.78 59.89-17.16L59.89-17.16L59.89-17.16Q58.14-16.53 56.89-15.43L56.89-15.43L55.67-17.44L55.67-17.44Q57.19-18.73 59.32-19.44L59.32-19.44L59.32-19.44Q61.45-20.14 63.80-20.14L63.80-20.14ZM62.85-1.94L62.85-1.94Q65.13-1.94 66.77-2.98L66.77-2.98L66.77-2.98Q68.40-4.03 69.20-6.00L69.20-6.00L69.20-9.27L62.93-9.27L62.93-9.27Q57.80-9.27 57.80-5.70L57.80-5.70L57.80-5.70Q57.80-3.95 59.13-2.94L59.13-2.94L59.13-2.94Q60.46-1.94 62.85-1.94L62.85-1.94ZM104.16-20.14L104.16-20.14Q107.92-20.14 110.07-17.97L110.07-17.97L110.07-17.97Q112.21-15.81 112.21-11.59L112.21-11.59L112.21 0L109.52 0L109.52-11.32L109.52-11.32Q109.52-14.44 108.02-16.07L108.02-16.07L108.02-16.07Q106.51-17.71 103.78-17.71L103.78-17.71L103.78-17.71Q100.66-17.71 98.88-15.79L98.88-15.79L98.88-15.79Q97.09-13.87 97.09-10.49L97.09-10.49L97.09 0L94.39 0L94.39-11.32L94.39-11.32Q94.39-14.44 92.89-16.07L92.89-16.07L92.89-16.07Q91.39-17.71 88.62-17.71L88.62-17.71L88.62-17.71Q85.54-17.71 83.73-15.79L83.73-15.79L83.73-15.79Q81.93-13.87 81.93-10.49L81.93-10.49L81.93 0L79.23 0L79.23-19.99L81.81-19.99L81.81-16.34L81.81-16.34Q82.88-18.16 84.78-19.15L84.78-19.15L84.78-19.15Q86.68-20.14 89.15-20.14L89.15-20.14L89.15-20.14Q91.66-20.14 93.50-19.08L93.50-19.08L93.50-19.08Q95.34-18.01 96.25-15.92L96.25-15.92L96.25-15.92Q97.36-17.90 99.43-19.02L99.43-19.02L99.43-19.02Q101.50-20.14 104.16-20.14L104.16-20.14ZM129.85-20.14L129.85-20.14Q132.66-20.14 134.94-18.87L134.94-18.87L134.94-18.87Q137.22-17.59 138.51-15.28L138.51-15.28L138.51-15.28Q139.80-12.96 139.80-9.99L139.80-9.99L139.80-9.99Q139.80-6.99 138.51-4.67L138.51-4.67L138.51-4.67Q137.22-2.36 134.96-1.08L134.96-1.08L134.96-1.08Q132.70 0.19 129.85 0.19L129.85 0.19L129.85 0.19Q127.41 0.19 125.46-0.82L125.46-0.82L125.46-0.82Q123.50-1.82 122.25-3.76L122.25-3.76L122.25 7.37L119.55 7.37L119.55-19.99L122.13-19.99L122.13-16.04L122.13-16.04Q123.35-18.01 125.34-19.08L125.34-19.08L125.34-19.08Q127.34-20.14 129.85-20.14L129.85-20.14ZM129.66-2.20L129.66-2.20Q131.75-2.20 133.46-3.17L133.46-3.17L133.46-3.17Q135.17-4.14 136.13-5.93L136.13-5.93L136.13-5.93Q137.10-7.71 137.10-9.99L137.10-9.99L137.10-9.99Q137.10-12.27 136.13-14.04L136.13-14.04L136.13-14.04Q135.17-15.81 133.46-16.80L133.46-16.80L133.46-16.80Q131.75-17.78 129.66-17.78L129.66-17.78L129.66-17.78Q127.53-17.78 125.84-16.80L125.84-16.80L125.84-16.80Q124.15-15.81 123.18-14.04L123.18-14.04L123.18-14.04Q122.21-12.27 122.21-9.99L122.21-9.99L122.21-9.99Q122.21-7.71 123.18-5.93L123.18-5.93L123.18-5.93Q124.15-4.14 125.84-3.17L125.84-3.17L125.84-3.17Q127.53-2.20 129.66-2.20L129.66-2.20ZM150.67 0.19L150.67 0.19Q148.24 0.19 146.02-0.51L146.02-0.51L146.02-0.51Q143.79-1.22 142.54-2.28L142.54-2.28L143.75-4.41L143.75-4.41Q145.01-3.42 146.91-2.79L146.91-2.79L146.91-2.79Q148.81-2.17 150.86-2.17L150.86-2.17L150.86-2.17Q153.60-2.17 154.91-3.02L154.91-3.02L154.91-3.02Q156.22-3.88 156.22-5.43L156.22-5.43L156.22-5.43Q156.22-6.54 155.50-7.16L155.50-7.16L155.50-7.16Q154.77-7.79 153.67-8.11L153.67-8.11L153.67-8.11Q152.57-8.44 150.75-8.74L150.75-8.74L150.75-8.74Q148.31-9.20 146.83-9.67L146.83-9.67L146.83-9.67Q145.35-10.15 144.31-11.29L144.31-11.29L144.31-11.29Q143.26-12.43 143.26-14.44L143.26-14.44L143.26-14.44Q143.26-16.95 145.35-18.54L145.35-18.54L145.35-18.54Q147.44-20.14 151.16-20.14L151.16-20.14L151.16-20.14Q153.10-20.14 155.04-19.63L155.04-19.63L155.04-19.63Q156.98-19.11 158.23-18.28L158.23-18.28L157.05-16.11L157.05-16.11Q154.58-17.82 151.16-17.82L151.16-17.82L151.16-17.82Q148.58-17.82 147.27-16.91L147.27-16.91L147.27-16.91Q145.96-16.00 145.96-14.52L145.96-14.52L145.96-14.52Q145.96-13.38 146.70-12.69L146.70-12.69L146.70-12.69Q147.44-12.01 148.54-11.69L148.54-11.69L148.54-11.69Q149.64-11.36 151.58-11.02L151.58-11.02L151.58-11.02Q153.98-10.56 155.42-10.11L155.42-10.11L155.42-10.11Q156.86-9.65 157.89-8.55L157.89-8.55L157.89-8.55Q158.92-7.45 158.92-5.51L158.92-5.51L158.92-5.51Q158.92-2.89 156.73-1.35L156.73-1.35L156.73-1.35Q154.55 0.19 150.67 0.19L150.67 0.19ZM162.41-9.12L162.41-11.48L172.37-11.48L172.37-9.12L162.41-9.12ZM183.77 0.19L183.77 0.19Q181.34 0.19 179.11-0.51L179.11-0.51L179.11-0.51Q176.89-1.22 175.64-2.28L175.64-2.28L176.85-4.41L176.85-4.41Q178.11-3.42 180.01-2.79L180.01-2.79L180.01-2.79Q181.91-2.17 183.96-2.17L183.96-2.17L183.96-2.17Q186.69-2.17 188.00-3.02L188.00-3.02L188.00-3.02Q189.32-3.88 189.32-5.43L189.32-5.43L189.32-5.43Q189.32-6.54 188.59-7.16L188.59-7.16L188.59-7.16Q187.87-7.79 186.77-8.11L186.77-8.11L186.77-8.11Q185.67-8.44 183.84-8.74L183.84-8.74L183.84-8.74Q181.41-9.20 179.93-9.67L179.93-9.67L179.93-9.67Q178.45-10.15 177.40-11.29L177.40-11.29L177.40-11.29Q176.36-12.43 176.36-14.44L176.36-14.44L176.36-14.44Q176.36-16.95 178.45-18.54L178.45-18.54L178.45-18.54Q180.54-20.14 184.26-20.14L184.26-20.14L184.26-20.14Q186.20-20.14 188.14-19.63L188.14-19.63L188.14-19.63Q190.08-19.11 191.33-18.28L191.33-18.28L190.15-16.11L190.15-16.11Q187.68-17.82 184.26-17.82L184.26-17.82L184.26-17.82Q181.68-17.82 180.37-16.91L180.37-16.91L180.37-16.91Q179.06-16.00 179.06-14.52L179.06-14.52L179.06-14.52Q179.06-13.38 179.80-12.69L179.80-12.69L179.80-12.69Q180.54-12.01 181.64-11.69L181.64-11.69L181.64-11.69Q182.74-11.36 184.68-11.02L184.68-11.02L184.68-11.02Q187.07-10.56 188.52-10.11L188.52-10.11L188.52-10.11Q189.96-9.65 190.99-8.55L190.99-8.55L190.99-8.55Q192.01-7.45 192.01-5.51L192.01-5.51L192.01-5.51Q192.01-2.89 189.83-1.35L189.83-1.35L189.83-1.35Q187.64 0.19 183.77 0.19L183.77 0.19ZM212.31-19.99L215.00-19.99L215.00 0L212.42 0L212.42-3.65L212.42-3.65Q211.36-1.82 209.49-0.82L209.49-0.82L209.49-0.82Q207.63 0.19 205.24 0.19L205.24 0.19L205.24 0.19Q201.32 0.19 199.06-1.99L199.06-1.99L199.06-1.99Q196.80-4.18 196.80-8.40L196.80-8.40L196.80-19.99L199.50-19.99L199.50-8.66L199.50-8.66Q199.50-5.51 201.06-3.88L201.06-3.88L201.06-3.88Q202.62-2.24 205.50-2.24L205.50-2.24L205.50-2.24Q208.66-2.24 210.48-4.16L210.48-4.16L210.48-4.16Q212.31-6.08 212.31-9.50L212.31-9.50L212.31-19.99ZM225.15-16.07L225.15-16.07Q226.10-18.09 227.98-19.11L227.98-19.11L227.98-19.11Q229.86-20.14 232.64-20.14L232.64-20.14L232.64-17.52L231.99-17.56L231.99-17.56Q228.84-17.56 227.05-15.62L227.05-15.62L227.05-15.62Q225.26-13.68 225.26-10.18L225.26-10.18L225.26 0L222.57 0L222.57-19.99L225.15-19.99L225.15-16.07ZM236.32-9.12L236.32-11.48L246.28-11.48L246.28-9.12L236.32-9.12ZM277.25-20.14L277.25-20.14Q281.01-20.14 283.16-17.97L283.16-17.97L283.16-17.97Q285.30-15.81 285.30-11.59L285.30-11.59L285.30 0L282.61 0L282.61-11.32L282.61-11.32Q282.61-14.44 281.10-16.07L281.10-16.07L281.10-16.07Q279.60-17.71 276.87-17.71L276.87-17.71L276.87-17.71Q273.75-17.71 271.97-15.79L271.97-15.79L271.97-15.79Q270.18-13.87 270.18-10.49L270.18-10.49L270.18 0L267.48 0L267.48-11.32L267.48-11.32Q267.48-14.44 265.98-16.07L265.98-16.07L265.98-16.07Q264.48-17.71 261.71-17.71L261.71-17.71L261.71-17.71Q258.63-17.71 256.82-15.79L256.82-15.79L256.82-15.79Q255.02-13.87 255.02-10.49L255.02-10.49L255.02 0L252.32 0L252.32-19.99L254.90-19.99L254.90-16.34L254.90-16.34Q255.97-18.16 257.87-19.15L257.87-19.15L257.87-19.15Q259.77-20.14 262.24-20.14L262.24-20.14L262.24-20.14Q264.75-20.14 266.59-19.08L266.59-19.08L266.59-19.08Q268.43-18.01 269.34-15.92L269.34-15.92L269.34-15.92Q270.45-17.90 272.52-19.02L272.52-19.02L272.52-19.02Q274.59-20.14 277.25-20.14L277.25-20.14ZM299.63-20.14L299.63-20.14Q303.54-20.14 305.63-18.18L305.63-18.18L305.63-18.18Q307.72-16.23 307.72-12.39L307.72-12.39L307.72 0L305.14 0L305.14-3.12L305.14-3.12Q304.23-1.56 302.46-0.68L302.46-0.68L302.46-0.68Q300.69 0.19 298.26 0.19L298.26 0.19L298.26 0.19Q294.92 0.19 292.94-1.41L292.94-1.41L292.94-1.41Q290.97-3.00 290.97-5.62L290.97-5.62L290.97-5.62Q290.97-8.17 292.81-9.73L292.81-9.73L292.81-9.73Q294.65-11.29 298.68-11.29L298.68-11.29L305.03-11.29L305.03-12.50L305.03-12.50Q305.03-15.09 303.58-16.43L303.58-16.43L303.58-16.43Q302.14-17.78 299.36-17.78L299.36-17.78L299.36-17.78Q297.46-17.78 295.72-17.16L295.72-17.16L295.72-17.16Q293.97-16.53 292.71-15.43L292.71-15.43L291.50-17.44L291.50-17.44Q293.02-18.73 295.15-19.44L295.15-19.44L295.15-19.44Q297.27-20.14 299.63-20.14L299.63-20.14ZM298.68-1.94L298.68-1.94Q300.96-1.94 302.59-2.98L302.59-2.98L302.59-2.98Q304.23-4.03 305.03-6.00L305.03-6.00L305.03-9.27L298.76-9.27L298.76-9.27Q293.63-9.27 293.63-5.70L293.63-5.70L293.63-5.70Q293.63-3.95 294.96-2.94L294.96-2.94L294.96-2.94Q296.29-1.94 298.68-1.94L298.68-1.94ZM317.64-16.07L317.64-16.07Q318.59-18.09 320.47-19.11L320.47-19.11L320.47-19.11Q322.35-20.14 325.13-20.14L325.13-20.14L325.13-17.52L324.48-17.56L324.48-17.56Q321.33-17.56 319.54-15.62L319.54-15.62L319.54-15.62Q317.76-13.68 317.76-10.18L317.76-10.18L317.76 0L315.06 0L315.06-19.99L317.64-19.99L317.64-16.07ZM340.48-20.14L340.48-20.14Q344.24-20.14 346.46-17.95L346.46-17.95L346.46-17.95Q348.69-15.77 348.69-11.59L348.69-11.59L348.69 0L345.99 0L345.99-11.32L345.99-11.32Q345.99-14.44 344.43-16.07L344.43-16.07L344.43-16.07Q342.87-17.71 339.99-17.71L339.99-17.71L339.99-17.71Q336.76-17.71 334.88-15.79L334.88-15.79L334.88-15.79Q332.99-13.87 332.99-10.49L332.99-10.49L332.99 0L330.30 0L330.30-19.99L332.88-19.99L332.88-16.30L332.88-16.30Q333.98-18.13 335.94-19.13L335.94-19.13L335.94-19.13Q337.90-20.14 340.48-20.14L340.48-20.14ZM373.46-9.99L373.43-9.16L356.71-9.16L356.71-9.16Q356.93-6.04 359.10-4.12L359.10-4.12L359.10-4.12Q361.27-2.20 364.57-2.20L364.57-2.20L364.57-2.20Q366.43-2.20 367.99-2.87L367.99-2.87L367.99-2.87Q369.55-3.53 370.69-4.83L370.69-4.83L372.21-3.08L372.21-3.08Q370.88-1.48 368.88-0.65L368.88-0.65L368.88-0.65Q366.89 0.19 364.50 0.19L364.50 0.19L364.50 0.19Q361.42 0.19 359.04-1.12L359.04-1.12L359.04-1.12Q356.67-2.43 355.34-4.75L355.34-4.75L355.34-4.75Q354.01-7.07 354.01-9.99L354.01-9.99L354.01-9.99Q354.01-12.92 355.28-15.24L355.28-15.24L355.28-15.24Q356.55-17.56 358.78-18.85L358.78-18.85L358.78-18.85Q361-20.14 363.77-20.14L363.77-20.14L363.77-20.14Q366.55-20.14 368.75-18.85L368.75-18.85L368.75-18.85Q370.96-17.56 372.21-15.26L372.21-15.26L372.21-15.26Q373.46-12.96 373.46-9.99L373.46-9.99ZM363.77-17.82L363.77-17.82Q360.89-17.82 358.93-15.98L358.93-15.98L358.93-15.98Q356.97-14.14 356.71-11.17L356.71-11.17L370.88-11.17L370.88-11.17Q370.61-14.14 368.66-15.98L368.66-15.98L368.66-15.98Q366.70-17.82 363.77-17.82L363.77-17.82Z" fill="#7c7c7c"></path></g></g><style>text {
  font-size: 64px;
  font-family: 'Montserrat', sans-serif;
  dominant-baseline: central;
  text-anchor: middle;
}</style></svg>